<svg width="318" height="203" viewBox="0 0 318 203" fill="none" xmlns="http://www.w3.org/2000/svg">
<path opacity="0.1" d="M3 7.20992C4.65685 7.20992 6 5.76644 6 3.98582C6 2.2052 4.65685 0.761719 3 0.761719C1.34315 0.761719 0 2.2052 0 3.98582C0 5.76644 1.34315 7.20992 3 7.20992Z" fill="#3B4C68"/>
<path opacity="0.1" d="M29 7.20992C30.6569 7.20992 32 5.76644 32 3.98582C32 2.2052 30.6569 0.761719 29 0.761719C27.3431 0.761719 26 2.2052 26 3.98582C26 5.76644 27.3431 7.20992 29 7.20992Z" fill="#3B4C68"/>
<path opacity="0.1" d="M55 7.20992C56.6569 7.20992 58 5.76644 58 3.98582C58 2.2052 56.6569 0.761719 55 0.761719C53.3431 0.761719 52 2.2052 52 3.98582C52 5.76644 53.3431 7.20992 55 7.20992Z" fill="#3B4C68"/>
<path opacity="0.1" d="M81 7.20992C82.6569 7.20992 84 5.76644 84 3.98582C84 2.2052 82.6569 0.761719 81 0.761719C79.3431 0.761719 78 2.2052 78 3.98582C78 5.76644 79.3431 7.20992 81 7.20992Z" fill="#3B4C68"/>
<path opacity="0.1" d="M107 7.20992C108.657 7.20992 110 5.76644 110 3.98582C110 2.2052 108.657 0.761719 107 0.761719C105.343 0.761719 104 2.2052 104 3.98582C104 5.76644 105.343 7.20992 107 7.20992Z" fill="#3B4C68"/>
<path opacity="0.1" d="M133 7.20992C134.657 7.20992 136 5.76644 136 3.98582C136 2.2052 134.657 0.761719 133 0.761719C131.343 0.761719 130 2.2052 130 3.98582C130 5.76644 131.343 7.20992 133 7.20992Z" fill="#3B4C68"/>
<path opacity="0.1" d="M159 7.20992C160.657 7.20992 162 5.76644 162 3.98582C162 2.2052 160.657 0.761719 159 0.761719C157.343 0.761719 156 2.2052 156 3.98582C156 5.76644 157.343 7.20992 159 7.20992Z" fill="#3B4C68"/>
<path opacity="0.1" d="M185 7.20992C186.657 7.20992 188 5.76644 188 3.98582C188 2.2052 186.657 0.761719 185 0.761719C183.343 0.761719 182 2.2052 182 3.98582C182 5.76644 183.343 7.20992 185 7.20992Z" fill="#3B4C68"/>
<path opacity="0.1" d="M211 7.20992C212.657 7.20992 214 5.76644 214 3.98582C214 2.2052 212.657 0.761719 211 0.761719C209.343 0.761719 208 2.2052 208 3.98582C208 5.76644 209.343 7.20992 211 7.20992Z" fill="#3B4C68"/>
<path opacity="0.1" d="M237 7.20992C238.657 7.20992 240 5.76644 240 3.98582C240 2.2052 238.657 0.761719 237 0.761719C235.343 0.761719 234 2.2052 234 3.98582C234 5.76644 235.343 7.20992 237 7.20992Z" fill="#3B4C68"/>
<path opacity="0.1" d="M263 7.20992C264.657 7.20992 266 5.76644 266 3.98582C266 2.2052 264.657 0.761719 263 0.761719C261.343 0.761719 260 2.2052 260 3.98582C260 5.76644 261.343 7.20992 263 7.20992Z" fill="#3B4C68"/>
<path opacity="0.1" d="M289 7.20992C290.657 7.20992 292 5.76644 292 3.98582C292 2.2052 290.657 0.761719 289 0.761719C287.343 0.761719 286 2.2052 286 3.98582C286 5.76644 287.343 7.20992 289 7.20992Z" fill="#3B4C68"/>
<path opacity="0.1" d="M315 7.20992C316.657 7.20992 318 5.76644 318 3.98582C318 2.2052 316.657 0.761719 315 0.761719C313.343 0.761719 312 2.2052 312 3.98582C312 5.76644 313.343 7.20992 315 7.20992Z" fill="#3B4C68"/>
<path opacity="0.1" d="M3 35.1521C4.65685 35.1521 6 33.7086 6 31.928C6 30.1474 4.65685 28.7039 3 28.7039C1.34315 28.7039 0 30.1474 0 31.928C0 33.7086 1.34315 35.1521 3 35.1521Z" fill="#3B4C68"/>
<path opacity="0.1" d="M29 35.1521C30.6569 35.1521 32 33.7086 32 31.928C32 30.1474 30.6569 28.7039 29 28.7039C27.3431 28.7039 26 30.1474 26 31.928C26 33.7086 27.3431 35.1521 29 35.1521Z" fill="#3B4C68"/>
<path opacity="0.1" d="M55 35.1521C56.6569 35.1521 58 33.7086 58 31.928C58 30.1474 56.6569 28.7039 55 28.7039C53.3431 28.7039 52 30.1474 52 31.928C52 33.7086 53.3431 35.1521 55 35.1521Z" fill="#3B4C68"/>
<path opacity="0.1" d="M81 35.1521C82.6569 35.1521 84 33.7086 84 31.928C84 30.1474 82.6569 28.7039 81 28.7039C79.3431 28.7039 78 30.1474 78 31.928C78 33.7086 79.3431 35.1521 81 35.1521Z" fill="#3B4C68"/>
<path opacity="0.1" d="M107 35.1521C108.657 35.1521 110 33.7086 110 31.928C110 30.1474 108.657 28.7039 107 28.7039C105.343 28.7039 104 30.1474 104 31.928C104 33.7086 105.343 35.1521 107 35.1521Z" fill="#3B4C68"/>
<path opacity="0.1" d="M133 35.1521C134.657 35.1521 136 33.7086 136 31.928C136 30.1474 134.657 28.7039 133 28.7039C131.343 28.7039 130 30.1474 130 31.928C130 33.7086 131.343 35.1521 133 35.1521Z" fill="#3B4C68"/>
<path opacity="0.1" d="M159 35.1521C160.657 35.1521 162 33.7086 162 31.928C162 30.1474 160.657 28.7039 159 28.7039C157.343 28.7039 156 30.1474 156 31.928C156 33.7086 157.343 35.1521 159 35.1521Z" fill="#3B4C68"/>
<path opacity="0.1" d="M185 35.1521C186.657 35.1521 188 33.7086 188 31.928C188 30.1474 186.657 28.7039 185 28.7039C183.343 28.7039 182 30.1474 182 31.928C182 33.7086 183.343 35.1521 185 35.1521Z" fill="#3B4C68"/>
<path opacity="0.1" d="M211 35.1521C212.657 35.1521 214 33.7086 214 31.928C214 30.1474 212.657 28.7039 211 28.7039C209.343 28.7039 208 30.1474 208 31.928C208 33.7086 209.343 35.1521 211 35.1521Z" fill="#3B4C68"/>
<path opacity="0.1" d="M237 35.1521C238.657 35.1521 240 33.7086 240 31.928C240 30.1474 238.657 28.7039 237 28.7039C235.343 28.7039 234 30.1474 234 31.928C234 33.7086 235.343 35.1521 237 35.1521Z" fill="#3B4C68"/>
<path opacity="0.1" d="M263 35.1521C264.657 35.1521 266 33.7086 266 31.928C266 30.1474 264.657 28.7039 263 28.7039C261.343 28.7039 260 30.1474 260 31.928C260 33.7086 261.343 35.1521 263 35.1521Z" fill="#3B4C68"/>
<path opacity="0.1" d="M289 35.1521C290.657 35.1521 292 33.7086 292 31.928C292 30.1474 290.657 28.7039 289 28.7039C287.343 28.7039 286 30.1474 286 31.928C286 33.7086 287.343 35.1521 289 35.1521Z" fill="#3B4C68"/>
<path opacity="0.1" d="M315 35.1521C316.657 35.1521 318 33.7086 318 31.928C318 30.1474 316.657 28.7039 315 28.7039C313.343 28.7039 312 30.1474 312 31.928C312 33.7086 313.343 35.1521 315 35.1521Z" fill="#3B4C68"/>
<path opacity="0.1" d="M3 63.0943C4.65685 63.0943 6 61.6508 6 59.8702C6 58.0896 4.65685 56.6461 3 56.6461C1.34315 56.6461 0 58.0896 0 59.8702C0 61.6508 1.34315 63.0943 3 63.0943Z" fill="#3B4C68"/>
<path opacity="0.1" d="M29 63.0943C30.6569 63.0943 32 61.6508 32 59.8702C32 58.0896 30.6569 56.6461 29 56.6461C27.3431 56.6461 26 58.0896 26 59.8702C26 61.6508 27.3431 63.0943 29 63.0943Z" fill="#3B4C68"/>
<path opacity="0.1" d="M55 63.0943C56.6569 63.0943 58 61.6508 58 59.8702C58 58.0896 56.6569 56.6461 55 56.6461C53.3431 56.6461 52 58.0896 52 59.8702C52 61.6508 53.3431 63.0943 55 63.0943Z" fill="#3B4C68"/>
<path opacity="0.1" d="M81 63.0943C82.6569 63.0943 84 61.6508 84 59.8702C84 58.0896 82.6569 56.6461 81 56.6461C79.3431 56.6461 78 58.0896 78 59.8702C78 61.6508 79.3431 63.0943 81 63.0943Z" fill="#3B4C68"/>
<path opacity="0.1" d="M107 63.0943C108.657 63.0943 110 61.6508 110 59.8702C110 58.0896 108.657 56.6461 107 56.6461C105.343 56.6461 104 58.0896 104 59.8702C104 61.6508 105.343 63.0943 107 63.0943Z" fill="#3B4C68"/>
<path opacity="0.1" d="M133 63.0943C134.657 63.0943 136 61.6508 136 59.8702C136 58.0896 134.657 56.6461 133 56.6461C131.343 56.6461 130 58.0896 130 59.8702C130 61.6508 131.343 63.0943 133 63.0943Z" fill="#3B4C68"/>
<path opacity="0.1" d="M159 63.0943C160.657 63.0943 162 61.6508 162 59.8702C162 58.0896 160.657 56.6461 159 56.6461C157.343 56.6461 156 58.0896 156 59.8702C156 61.6508 157.343 63.0943 159 63.0943Z" fill="#3B4C68"/>
<path opacity="0.1" d="M185 63.0943C186.657 63.0943 188 61.6508 188 59.8702C188 58.0896 186.657 56.6461 185 56.6461C183.343 56.6461 182 58.0896 182 59.8702C182 61.6508 183.343 63.0943 185 63.0943Z" fill="#3B4C68"/>
<path opacity="0.1" d="M211 63.0943C212.657 63.0943 214 61.6508 214 59.8702C214 58.0896 212.657 56.6461 211 56.6461C209.343 56.6461 208 58.0896 208 59.8702C208 61.6508 209.343 63.0943 211 63.0943Z" fill="#3B4C68"/>
<path opacity="0.1" d="M237 63.0943C238.657 63.0943 240 61.6508 240 59.8702C240 58.0896 238.657 56.6461 237 56.6461C235.343 56.6461 234 58.0896 234 59.8702C234 61.6508 235.343 63.0943 237 63.0943Z" fill="#3B4C68"/>
<path opacity="0.1" d="M263 63.0943C264.657 63.0943 266 61.6508 266 59.8702C266 58.0896 264.657 56.6461 263 56.6461C261.343 56.6461 260 58.0896 260 59.8702C260 61.6508 261.343 63.0943 263 63.0943Z" fill="#3B4C68"/>
<path opacity="0.1" d="M289 63.0943C290.657 63.0943 292 61.6508 292 59.8702C292 58.0896 290.657 56.6461 289 56.6461C287.343 56.6461 286 58.0896 286 59.8702C286 61.6508 287.343 63.0943 289 63.0943Z" fill="#3B4C68"/>
<path opacity="0.1" d="M315 63.0943C316.657 63.0943 318 61.6508 318 59.8702C318 58.0896 316.657 56.6461 315 56.6461C313.343 56.6461 312 58.0896 312 59.8702C312 61.6508 313.343 63.0943 315 63.0943Z" fill="#3B4C68"/>
<path opacity="0.1" d="M3 91.0365C4.65685 91.0365 6 89.593 6 87.8124C6 86.0318 4.65685 84.5883 3 84.5883C1.34315 84.5883 0 86.0318 0 87.8124C0 89.593 1.34315 91.0365 3 91.0365Z" fill="#3B4C68"/>
<path opacity="0.1" d="M29 91.0365C30.6569 91.0365 32 89.593 32 87.8124C32 86.0318 30.6569 84.5883 29 84.5883C27.3431 84.5883 26 86.0318 26 87.8124C26 89.593 27.3431 91.0365 29 91.0365Z" fill="#3B4C68"/>
<path opacity="0.1" d="M55 91.0365C56.6569 91.0365 58 89.593 58 87.8124C58 86.0318 56.6569 84.5883 55 84.5883C53.3431 84.5883 52 86.0318 52 87.8124C52 89.593 53.3431 91.0365 55 91.0365Z" fill="#3B4C68"/>
<path opacity="0.1" d="M81 91.0365C82.6569 91.0365 84 89.593 84 87.8124C84 86.0318 82.6569 84.5883 81 84.5883C79.3431 84.5883 78 86.0318 78 87.8124C78 89.593 79.3431 91.0365 81 91.0365Z" fill="#3B4C68"/>
<path opacity="0.1" d="M107 91.0365C108.657 91.0365 110 89.593 110 87.8124C110 86.0318 108.657 84.5883 107 84.5883C105.343 84.5883 104 86.0318 104 87.8124C104 89.593 105.343 91.0365 107 91.0365Z" fill="#3B4C68"/>
<path opacity="0.1" d="M133 91.0365C134.657 91.0365 136 89.593 136 87.8124C136 86.0318 134.657 84.5883 133 84.5883C131.343 84.5883 130 86.0318 130 87.8124C130 89.593 131.343 91.0365 133 91.0365Z" fill="#3B4C68"/>
<path opacity="0.1" d="M159 91.0365C160.657 91.0365 162 89.593 162 87.8124C162 86.0318 160.657 84.5883 159 84.5883C157.343 84.5883 156 86.0318 156 87.8124C156 89.593 157.343 91.0365 159 91.0365Z" fill="#3B4C68"/>
<path opacity="0.1" d="M185 91.0365C186.657 91.0365 188 89.593 188 87.8124C188 86.0318 186.657 84.5883 185 84.5883C183.343 84.5883 182 86.0318 182 87.8124C182 89.593 183.343 91.0365 185 91.0365Z" fill="#3B4C68"/>
<path opacity="0.1" d="M211 91.0365C212.657 91.0365 214 89.593 214 87.8124C214 86.0318 212.657 84.5883 211 84.5883C209.343 84.5883 208 86.0318 208 87.8124C208 89.593 209.343 91.0365 211 91.0365Z" fill="#3B4C68"/>
<path opacity="0.1" d="M237 91.0365C238.657 91.0365 240 89.593 240 87.8124C240 86.0318 238.657 84.5883 237 84.5883C235.343 84.5883 234 86.0318 234 87.8124C234 89.593 235.343 91.0365 237 91.0365Z" fill="#3B4C68"/>
<path opacity="0.1" d="M263 91.0365C264.657 91.0365 266 89.593 266 87.8124C266 86.0318 264.657 84.5883 263 84.5883C261.343 84.5883 260 86.0318 260 87.8124C260 89.593 261.343 91.0365 263 91.0365Z" fill="#3B4C68"/>
<path opacity="0.1" d="M289 91.0365C290.657 91.0365 292 89.593 292 87.8124C292 86.0318 290.657 84.5883 289 84.5883C287.343 84.5883 286 86.0318 286 87.8124C286 89.593 287.343 91.0365 289 91.0365Z" fill="#3B4C68"/>
<path opacity="0.1" d="M315 91.0365C316.657 91.0365 318 89.593 318 87.8124C318 86.0318 316.657 84.5883 315 84.5883C313.343 84.5883 312 86.0318 312 87.8124C312 89.593 313.343 91.0365 315 91.0365Z" fill="#3B4C68"/>
<path opacity="0.1" d="M3 118.979C4.65685 118.979 6 117.535 6 115.755C6 113.974 4.65685 112.531 3 112.531C1.34315 112.531 0 113.974 0 115.755C0 117.535 1.34315 118.979 3 118.979Z" fill="#3B4C68"/>
<path opacity="0.1" d="M29 118.979C30.6569 118.979 32 117.535 32 115.755C32 113.974 30.6569 112.531 29 112.531C27.3431 112.531 26 113.974 26 115.755C26 117.535 27.3431 118.979 29 118.979Z" fill="#3B4C68"/>
<path opacity="0.1" d="M55 118.979C56.6569 118.979 58 117.535 58 115.755C58 113.974 56.6569 112.531 55 112.531C53.3431 112.531 52 113.974 52 115.755C52 117.535 53.3431 118.979 55 118.979Z" fill="#3B4C68"/>
<path opacity="0.1" d="M81 118.979C82.6569 118.979 84 117.535 84 115.755C84 113.974 82.6569 112.531 81 112.531C79.3431 112.531 78 113.974 78 115.755C78 117.535 79.3431 118.979 81 118.979Z" fill="#3B4C68"/>
<path opacity="0.1" d="M107 118.979C108.657 118.979 110 117.535 110 115.755C110 113.974 108.657 112.531 107 112.531C105.343 112.531 104 113.974 104 115.755C104 117.535 105.343 118.979 107 118.979Z" fill="#3B4C68"/>
<path opacity="0.1" d="M133 118.979C134.657 118.979 136 117.535 136 115.755C136 113.974 134.657 112.531 133 112.531C131.343 112.531 130 113.974 130 115.755C130 117.535 131.343 118.979 133 118.979Z" fill="#3B4C68"/>
<path opacity="0.1" d="M159 118.979C160.657 118.979 162 117.535 162 115.755C162 113.974 160.657 112.531 159 112.531C157.343 112.531 156 113.974 156 115.755C156 117.535 157.343 118.979 159 118.979Z" fill="#3B4C68"/>
<path opacity="0.1" d="M185 118.979C186.657 118.979 188 117.535 188 115.755C188 113.974 186.657 112.531 185 112.531C183.343 112.531 182 113.974 182 115.755C182 117.535 183.343 118.979 185 118.979Z" fill="#3B4C68"/>
<path opacity="0.1" d="M211 118.979C212.657 118.979 214 117.535 214 115.755C214 113.974 212.657 112.531 211 112.531C209.343 112.531 208 113.974 208 115.755C208 117.535 209.343 118.979 211 118.979Z" fill="#3B4C68"/>
<path opacity="0.1" d="M237 118.979C238.657 118.979 240 117.535 240 115.755C240 113.974 238.657 112.531 237 112.531C235.343 112.531 234 113.974 234 115.755C234 117.535 235.343 118.979 237 118.979Z" fill="#3B4C68"/>
<path opacity="0.1" d="M263 118.979C264.657 118.979 266 117.535 266 115.755C266 113.974 264.657 112.531 263 112.531C261.343 112.531 260 113.974 260 115.755C260 117.535 261.343 118.979 263 118.979Z" fill="#3B4C68"/>
<path opacity="0.1" d="M289 118.979C290.657 118.979 292 117.535 292 115.755C292 113.974 290.657 112.531 289 112.531C287.343 112.531 286 113.974 286 115.755C286 117.535 287.343 118.979 289 118.979Z" fill="#3B4C68"/>
<path opacity="0.1" d="M315 118.979C316.657 118.979 318 117.535 318 115.755C318 113.974 316.657 112.531 315 112.531C313.343 112.531 312 113.974 312 115.755C312 117.535 313.343 118.979 315 118.979Z" fill="#3B4C68"/>
<path opacity="0.1" d="M3 146.921C4.65685 146.921 6 145.477 6 143.697C6 141.916 4.65685 140.473 3 140.473C1.34315 140.473 0 141.916 0 143.697C0 145.477 1.34315 146.921 3 146.921Z" fill="#3B4C68"/>
<path opacity="0.1" d="M29 146.921C30.6569 146.921 32 145.477 32 143.697C32 141.916 30.6569 140.473 29 140.473C27.3431 140.473 26 141.916 26 143.697C26 145.477 27.3431 146.921 29 146.921Z" fill="#3B4C68"/>
<path opacity="0.1" d="M55 146.921C56.6569 146.921 58 145.477 58 143.697C58 141.916 56.6569 140.473 55 140.473C53.3431 140.473 52 141.916 52 143.697C52 145.477 53.3431 146.921 55 146.921Z" fill="#3B4C68"/>
<path opacity="0.1" d="M81 146.921C82.6569 146.921 84 145.477 84 143.697C84 141.916 82.6569 140.473 81 140.473C79.3431 140.473 78 141.916 78 143.697C78 145.477 79.3431 146.921 81 146.921Z" fill="#3B4C68"/>
<path opacity="0.1" d="M107 146.921C108.657 146.921 110 145.477 110 143.697C110 141.916 108.657 140.473 107 140.473C105.343 140.473 104 141.916 104 143.697C104 145.477 105.343 146.921 107 146.921Z" fill="#3B4C68"/>
<path opacity="0.1" d="M133 146.921C134.657 146.921 136 145.477 136 143.697C136 141.916 134.657 140.473 133 140.473C131.343 140.473 130 141.916 130 143.697C130 145.477 131.343 146.921 133 146.921Z" fill="#3B4C68"/>
<path opacity="0.1" d="M159 146.921C160.657 146.921 162 145.477 162 143.697C162 141.916 160.657 140.473 159 140.473C157.343 140.473 156 141.916 156 143.697C156 145.477 157.343 146.921 159 146.921Z" fill="#3B4C68"/>
<path opacity="0.1" d="M185 146.921C186.657 146.921 188 145.477 188 143.697C188 141.916 186.657 140.473 185 140.473C183.343 140.473 182 141.916 182 143.697C182 145.477 183.343 146.921 185 146.921Z" fill="#3B4C68"/>
<path opacity="0.1" d="M211 146.921C212.657 146.921 214 145.477 214 143.697C214 141.916 212.657 140.473 211 140.473C209.343 140.473 208 141.916 208 143.697C208 145.477 209.343 146.921 211 146.921Z" fill="#3B4C68"/>
<path opacity="0.1" d="M237 146.921C238.657 146.921 240 145.477 240 143.697C240 141.916 238.657 140.473 237 140.473C235.343 140.473 234 141.916 234 143.697C234 145.477 235.343 146.921 237 146.921Z" fill="#3B4C68"/>
<path opacity="0.1" d="M263 146.921C264.657 146.921 266 145.477 266 143.697C266 141.916 264.657 140.473 263 140.473C261.343 140.473 260 141.916 260 143.697C260 145.477 261.343 146.921 263 146.921Z" fill="#3B4C68"/>
<path opacity="0.1" d="M289 146.921C290.657 146.921 292 145.477 292 143.697C292 141.916 290.657 140.473 289 140.473C287.343 140.473 286 141.916 286 143.697C286 145.477 287.343 146.921 289 146.921Z" fill="#3B4C68"/>
<path opacity="0.1" d="M315 146.921C316.657 146.921 318 145.477 318 143.697C318 141.916 316.657 140.473 315 140.473C313.343 140.473 312 141.916 312 143.697C312 145.477 313.343 146.921 315 146.921Z" fill="#3B4C68"/>
<path opacity="0.1" d="M3 174.863C4.65685 174.863 6 173.42 6 171.639C6 169.858 4.65685 168.415 3 168.415C1.34315 168.415 0 169.858 0 171.639C0 173.42 1.34315 174.863 3 174.863Z" fill="#3B4C68"/>
<path opacity="0.1" d="M29 174.863C30.6569 174.863 32 173.42 32 171.639C32 169.858 30.6569 168.415 29 168.415C27.3431 168.415 26 169.858 26 171.639C26 173.42 27.3431 174.863 29 174.863Z" fill="#3B4C68"/>
<path opacity="0.1" d="M55 174.863C56.6569 174.863 58 173.42 58 171.639C58 169.858 56.6569 168.415 55 168.415C53.3431 168.415 52 169.858 52 171.639C52 173.42 53.3431 174.863 55 174.863Z" fill="#3B4C68"/>
<path opacity="0.1" d="M81 174.863C82.6569 174.863 84 173.42 84 171.639C84 169.858 82.6569 168.415 81 168.415C79.3431 168.415 78 169.858 78 171.639C78 173.42 79.3431 174.863 81 174.863Z" fill="#3B4C68"/>
<path opacity="0.1" d="M107 174.863C108.657 174.863 110 173.42 110 171.639C110 169.858 108.657 168.415 107 168.415C105.343 168.415 104 169.858 104 171.639C104 173.42 105.343 174.863 107 174.863Z" fill="#3B4C68"/>
<path opacity="0.1" d="M133 174.863C134.657 174.863 136 173.42 136 171.639C136 169.858 134.657 168.415 133 168.415C131.343 168.415 130 169.858 130 171.639C130 173.42 131.343 174.863 133 174.863Z" fill="#3B4C68"/>
<path opacity="0.1" d="M159 174.863C160.657 174.863 162 173.42 162 171.639C162 169.858 160.657 168.415 159 168.415C157.343 168.415 156 169.858 156 171.639C156 173.42 157.343 174.863 159 174.863Z" fill="#3B4C68"/>
<path opacity="0.1" d="M185 174.863C186.657 174.863 188 173.42 188 171.639C188 169.858 186.657 168.415 185 168.415C183.343 168.415 182 169.858 182 171.639C182 173.42 183.343 174.863 185 174.863Z" fill="#3B4C68"/>
<path opacity="0.1" d="M211 174.863C212.657 174.863 214 173.42 214 171.639C214 169.858 212.657 168.415 211 168.415C209.343 168.415 208 169.858 208 171.639C208 173.42 209.343 174.863 211 174.863Z" fill="#3B4C68"/>
<path opacity="0.1" d="M237 174.863C238.657 174.863 240 173.42 240 171.639C240 169.858 238.657 168.415 237 168.415C235.343 168.415 234 169.858 234 171.639C234 173.42 235.343 174.863 237 174.863Z" fill="#3B4C68"/>
<path opacity="0.1" d="M263 174.863C264.657 174.863 266 173.42 266 171.639C266 169.858 264.657 168.415 263 168.415C261.343 168.415 260 169.858 260 171.639C260 173.42 261.343 174.863 263 174.863Z" fill="#3B4C68"/>
<path opacity="0.1" d="M289 174.863C290.657 174.863 292 173.42 292 171.639C292 169.858 290.657 168.415 289 168.415C287.343 168.415 286 169.858 286 171.639C286 173.42 287.343 174.863 289 174.863Z" fill="#3B4C68"/>
<path opacity="0.1" d="M315 174.863C316.657 174.863 318 173.42 318 171.639C318 169.858 316.657 168.415 315 168.415C313.343 168.415 312 169.858 312 171.639C312 173.42 313.343 174.863 315 174.863Z" fill="#3B4C68"/>
<path opacity="0.1" d="M3 202.805C4.65685 202.805 6 201.362 6 199.581C6 197.801 4.65685 196.357 3 196.357C1.34315 196.357 0 197.801 0 199.581C0 201.362 1.34315 202.805 3 202.805Z" fill="#3B4C68"/>
<path opacity="0.1" d="M29 202.805C30.6569 202.805 32 201.362 32 199.581C32 197.801 30.6569 196.357 29 196.357C27.3431 196.357 26 197.801 26 199.581C26 201.362 27.3431 202.805 29 202.805Z" fill="#3B4C68"/>
<path opacity="0.1" d="M55 202.805C56.6569 202.805 58 201.362 58 199.581C58 197.801 56.6569 196.357 55 196.357C53.3431 196.357 52 197.801 52 199.581C52 201.362 53.3431 202.805 55 202.805Z" fill="#3B4C68"/>
<path opacity="0.1" d="M81 202.805C82.6569 202.805 84 201.362 84 199.581C84 197.801 82.6569 196.357 81 196.357C79.3431 196.357 78 197.801 78 199.581C78 201.362 79.3431 202.805 81 202.805Z" fill="#3B4C68"/>
<path opacity="0.1" d="M107 202.805C108.657 202.805 110 201.362 110 199.581C110 197.801 108.657 196.357 107 196.357C105.343 196.357 104 197.801 104 199.581C104 201.362 105.343 202.805 107 202.805Z" fill="#3B4C68"/>
<path opacity="0.1" d="M133 202.805C134.657 202.805 136 201.362 136 199.581C136 197.801 134.657 196.357 133 196.357C131.343 196.357 130 197.801 130 199.581C130 201.362 131.343 202.805 133 202.805Z" fill="#3B4C68"/>
<path opacity="0.1" d="M159 202.805C160.657 202.805 162 201.362 162 199.581C162 197.801 160.657 196.357 159 196.357C157.343 196.357 156 197.801 156 199.581C156 201.362 157.343 202.805 159 202.805Z" fill="#3B4C68"/>
<path opacity="0.1" d="M185 202.805C186.657 202.805 188 201.362 188 199.581C188 197.801 186.657 196.357 185 196.357C183.343 196.357 182 197.801 182 199.581C182 201.362 183.343 202.805 185 202.805Z" fill="#3B4C68"/>
<path opacity="0.1" d="M211 202.805C212.657 202.805 214 201.362 214 199.581C214 197.801 212.657 196.357 211 196.357C209.343 196.357 208 197.801 208 199.581C208 201.362 209.343 202.805 211 202.805Z" fill="#3B4C68"/>
<path opacity="0.1" d="M237 202.805C238.657 202.805 240 201.362 240 199.581C240 197.801 238.657 196.357 237 196.357C235.343 196.357 234 197.801 234 199.581C234 201.362 235.343 202.805 237 202.805Z" fill="#3B4C68"/>
<path opacity="0.1" d="M263 202.805C264.657 202.805 266 201.362 266 199.581C266 197.801 264.657 196.357 263 196.357C261.343 196.357 260 197.801 260 199.581C260 201.362 261.343 202.805 263 202.805Z" fill="#3B4C68"/>
<path opacity="0.1" d="M289 202.805C290.657 202.805 292 201.362 292 199.581C292 197.801 290.657 196.357 289 196.357C287.343 196.357 286 197.801 286 199.581C286 201.362 287.343 202.805 289 202.805Z" fill="#3B4C68"/>
<path opacity="0.1" d="M315 202.805C316.657 202.805 318 201.362 318 199.581C318 197.801 316.657 196.357 315 196.357C313.343 196.357 312 197.801 312 199.581C312 201.362 313.343 202.805 315 202.805Z" fill="#3B4C68"/>
</svg>
