<svg width="295" height="198" viewBox="0 0 295 198" fill="none" xmlns="http://www.w3.org/2000/svg">
<g filter="url(#filter0_d_28_255)">
<circle cx="99" cy="95" r="29" fill="white"/>
</g>
<path d="M176.574 87.6L171.47 103H168.434L164.628 91.604L160.756 103H157.698L152.594 87.6H155.564L159.392 99.304L163.374 87.6H166.014L169.908 99.37L173.846 87.6H176.574ZM182.247 91.12C183.978 91.12 185.298 91.538 186.207 92.374C187.131 93.1953 187.593 94.442 187.593 96.114V103H184.997V101.57C184.66 102.083 184.176 102.479 183.545 102.758C182.929 103.022 182.181 103.154 181.301 103.154C180.421 103.154 179.651 103.007 178.991 102.714C178.331 102.406 177.818 101.988 177.451 101.46C177.099 100.917 176.923 100.309 176.923 99.634C176.923 98.578 177.312 97.7347 178.089 97.104C178.881 96.4587 180.12 96.136 181.807 96.136H184.843V95.96C184.843 95.1387 184.594 94.508 184.095 94.068C183.611 93.628 182.885 93.408 181.917 93.408C181.257 93.408 180.604 93.5107 179.959 93.716C179.328 93.9213 178.793 94.2073 178.353 94.574L177.275 92.572C177.891 92.1027 178.632 91.7433 179.497 91.494C180.362 91.2447 181.279 91.12 182.247 91.12ZM181.873 101.152C182.562 101.152 183.171 100.998 183.699 100.69C184.242 100.367 184.623 99.9127 184.843 99.326V97.962H182.005C180.421 97.962 179.629 98.4827 179.629 99.524C179.629 100.023 179.827 100.419 180.223 100.712C180.619 101.005 181.169 101.152 181.873 101.152ZM198.184 102.362C197.862 102.626 197.466 102.824 196.996 102.956C196.542 103.088 196.058 103.154 195.544 103.154C194.254 103.154 193.256 102.817 192.552 102.142C191.848 101.467 191.496 100.485 191.496 99.194V93.54H189.56V91.34H191.496V88.656H194.246V91.34H197.392V93.54H194.246V99.128C194.246 99.7 194.386 100.14 194.664 100.448C194.943 100.741 195.346 100.888 195.874 100.888C196.49 100.888 197.004 100.727 197.414 100.404L198.184 102.362ZM205.45 103.154C204.233 103.154 203.14 102.897 202.172 102.384C201.204 101.871 200.449 101.159 199.906 100.25C199.363 99.326 199.092 98.2847 199.092 97.126C199.092 95.9673 199.363 94.9333 199.906 94.024C200.449 93.1147 201.197 92.4033 202.15 91.89C203.118 91.3767 204.218 91.12 205.45 91.12C206.609 91.12 207.621 91.3547 208.486 91.824C209.366 92.2933 210.026 92.968 210.466 93.848L208.354 95.08C208.017 94.5373 207.591 94.134 207.078 93.87C206.579 93.5913 206.029 93.452 205.428 93.452C204.401 93.452 203.551 93.7893 202.876 94.464C202.201 95.124 201.864 96.0113 201.864 97.126C201.864 98.2407 202.194 99.1353 202.854 99.81C203.529 100.47 204.387 100.8 205.428 100.8C206.029 100.8 206.579 100.668 207.078 100.404C207.591 100.125 208.017 99.7147 208.354 99.172L210.466 100.404C210.011 101.284 209.344 101.966 208.464 102.45C207.599 102.919 206.594 103.154 205.45 103.154ZM219.402 91.12C220.883 91.12 222.071 91.5527 222.966 92.418C223.86 93.2833 224.308 94.5667 224.308 96.268V103H221.558V96.62C221.558 95.5933 221.316 94.8233 220.832 94.31C220.348 93.782 219.658 93.518 218.764 93.518C217.752 93.518 216.952 93.826 216.366 94.442C215.779 95.0433 215.486 95.916 215.486 97.06V103H212.736V86.676H215.486V92.616C215.94 92.132 216.498 91.7653 217.158 91.516C217.832 91.252 218.58 91.12 219.402 91.12ZM244.876 91.252L239.838 103H237L231.962 91.252H234.822L238.474 99.964L242.236 91.252H244.876ZM246.595 91.252H249.345V103H246.595V91.252ZM247.981 89.316C247.482 89.316 247.064 89.162 246.727 88.854C246.39 88.5313 246.221 88.1353 246.221 87.666C246.221 87.1967 246.39 86.808 246.727 86.5C247.064 86.1773 247.482 86.016 247.981 86.016C248.48 86.016 248.898 86.17 249.235 86.478C249.572 86.7713 249.741 87.1453 249.741 87.6C249.741 88.084 249.572 88.4947 249.235 88.832C248.912 89.1547 248.494 89.316 247.981 89.316ZM264.46 86.676V103H261.82V101.482C261.366 102.039 260.801 102.457 260.126 102.736C259.466 103.015 258.733 103.154 257.926 103.154C256.797 103.154 255.778 102.905 254.868 102.406C253.974 101.907 253.27 101.203 252.756 100.294C252.243 99.37 251.986 98.314 251.986 97.126C251.986 95.938 252.243 94.8893 252.756 93.98C253.27 93.0707 253.974 92.3667 254.868 91.868C255.778 91.3693 256.797 91.12 257.926 91.12C258.704 91.12 259.415 91.252 260.06 91.516C260.706 91.78 261.256 92.176 261.71 92.704V86.676H264.46ZM258.256 100.8C258.916 100.8 259.51 100.653 260.038 100.36C260.566 100.052 260.984 99.6193 261.292 99.062C261.6 98.5047 261.754 97.8593 261.754 97.126C261.754 96.3927 261.6 95.7473 261.292 95.19C260.984 94.6327 260.566 94.2073 260.038 93.914C259.51 93.606 258.916 93.452 258.256 93.452C257.596 93.452 257.002 93.606 256.474 93.914C255.946 94.2073 255.528 94.6327 255.22 95.19C254.912 95.7473 254.758 96.3927 254.758 97.126C254.758 97.8593 254.912 98.5047 255.22 99.062C255.528 99.6193 255.946 100.052 256.474 100.36C257.002 100.653 257.596 100.8 258.256 100.8ZM279.102 97.192C279.102 97.3827 279.087 97.654 279.058 98.006H269.84C270.001 98.8713 270.419 99.5607 271.094 100.074C271.783 100.573 272.634 100.822 273.646 100.822C274.937 100.822 276 100.397 276.836 99.546L278.31 101.24C277.782 101.871 277.115 102.347 276.308 102.67C275.501 102.993 274.592 103.154 273.58 103.154C272.289 103.154 271.153 102.897 270.17 102.384C269.187 101.871 268.425 101.159 267.882 100.25C267.354 99.326 267.09 98.2847 267.09 97.126C267.09 95.982 267.347 94.9553 267.86 94.046C268.388 93.122 269.114 92.4033 270.038 91.89C270.962 91.3767 272.003 91.12 273.162 91.12C274.306 91.12 275.325 91.3767 276.22 91.89C277.129 92.3887 277.833 93.1 278.332 94.024C278.845 94.9333 279.102 95.9893 279.102 97.192ZM273.162 93.32C272.282 93.32 271.534 93.584 270.918 94.112C270.317 94.6253 269.95 95.3147 269.818 96.18H276.484C276.367 95.3293 276.007 94.64 275.406 94.112C274.805 93.584 274.057 93.32 273.162 93.32ZM287.023 103.154C285.835 103.154 284.765 102.897 283.811 102.384C282.858 101.871 282.11 101.159 281.567 100.25C281.039 99.326 280.775 98.2847 280.775 97.126C280.775 95.9673 281.039 94.9333 281.567 94.024C282.11 93.1147 282.858 92.4033 283.811 91.89C284.765 91.3767 285.835 91.12 287.023 91.12C288.226 91.12 289.304 91.3767 290.257 91.89C291.211 92.4033 291.951 93.1147 292.479 94.024C293.022 94.9333 293.293 95.9673 293.293 97.126C293.293 98.2847 293.022 99.326 292.479 100.25C291.951 101.159 291.211 101.871 290.257 102.384C289.304 102.897 288.226 103.154 287.023 103.154ZM287.023 100.8C288.035 100.8 288.871 100.463 289.531 99.788C290.191 99.1133 290.521 98.226 290.521 97.126C290.521 96.026 290.191 95.1387 289.531 94.464C288.871 93.7893 288.035 93.452 287.023 93.452C286.011 93.452 285.175 93.7893 284.515 94.464C283.87 95.1387 283.547 96.026 283.547 97.126C283.547 98.226 283.87 99.1133 284.515 99.788C285.175 100.463 286.011 100.8 287.023 100.8Z" fill="#282A30"/>
<path d="M107.5 94.634C108.167 95.0189 108.167 95.9811 107.5 96.366L94.75 103.727C94.0833 104.112 93.25 103.631 93.25 102.861L93.25 88.1388C93.25 87.369 94.0833 86.8879 94.75 87.2728L107.5 94.634Z" fill="#282A30"/>
<defs>
<filter id="filter0_d_28_255" x="0" y="0" width="198" height="198" filterUnits="userSpaceOnUse" color-interpolation-filters="sRGB">
<feFlood flood-opacity="0" result="BackgroundImageFix"/>
<feColorMatrix in="SourceAlpha" type="matrix" values="0 0 0 0 0 0 0 0 0 0 0 0 0 0 0 0 0 0 127 0" result="hardAlpha"/>
<feOffset dy="4"/>
<feGaussianBlur stdDeviation="35"/>
<feColorMatrix type="matrix" values="0 0 0 0 0 0 0 0 0 0 0 0 0 0 0 0 0 0 0.15 0"/>
<feBlend mode="normal" in2="BackgroundImageFix" result="effect1_dropShadow_28_255"/>
<feBlend mode="normal" in="SourceGraphic" in2="effect1_dropShadow_28_255" result="shape"/>
</filter>
</defs>
</svg>
